<?xml version="1.0" standalone="no"?>
<!DOCTYPE svg PUBLIC "-//W3C//DTD SVG 20010904//EN"
 "http://www.w3.org/TR/2001/REC-SVG-20010904/DTD/svg10.dtd">
<svg version="1.0" xmlns="http://www.w3.org/2000/svg"
 width="72.000000pt" height="72.000000pt" viewBox="0 0 72.000000 72.000000"
 preserveAspectRatio="xMidYMid meet">

<g transform="translate(0.000000,72.000000) scale(0.100000,-0.100000)"
fill="#000000" stroke="none">
<path d="M84 691 c-68 -31 -74 -59 -74 -334 1 -357 -9 -347 350 -347 271 0
300 6 331 74 16 36 19 68 19 276 0 360 10 350 -353 350 -204 0 -237 -3 -273
-19z m424 -76 c102 -55 155 -141 156 -250 1 -84 -23 -144 -81 -202 -64 -64
-123 -87 -223 -88 -73 0 -93 4 -142 28 -224 110 -220 409 7 519 55 27 68 29
145 26 71 -3 94 -9 138 -33z"/>
<path d="M240 588 c-156 -78 -197 -259 -86 -385 136 -154 388 -110 461 80 32
83 7 184 -62 253 -53 54 -89 67 -183 71 -72 3 -92 0 -130 -19z m140 0 c-1 -15
-24 -48 -34 -48 -4 0 -2 9 4 20 9 16 8 20 -5 20 -8 0 -15 5 -15 10 0 6 11 10
25 10 14 0 25 -6 25 -12z m53 -35 c-7 -2 -13 -12 -13 -20 0 -9 -3 -14 -6 -10
-10 10 4 37 18 36 10 0 10 -2 1 -6z m-145 -44 c-3 -8 -7 -3 -11 10 -4 17 -3
21 5 13 5 -5 8 -16 6 -23z m194 -26 l2 -58 3 53 c4 52 23 75 23 26 0 -14 4
-22 10 -19 21 13 25 -112 4 -146 -9 -16 -96 -10 -116 8 -26 23 -26 125 0 121
13 -2 18 5 20 30 5 50 21 38 25 -20 l3 -53 2 58 c1 31 7 57 12 57 6 0 11 -26
12 -57z m-117 37 c3 -5 -1 -10 -9 -10 -9 0 -16 5 -16 10 0 6 4 10 9 10 6 0 13
-4 16 -10z m-95 -40 c0 -31 3 -38 15 -34 11 4 15 -1 16 -17 0 -22 1 -23 9 -4
7 18 8 19 15 3 11 -27 -2 -51 -23 -43 -13 5 -14 4 -5 -6 10 -10 15 -9 28 1 12
10 15 10 15 -3 0 -23 -25 -44 -61 -52 -25 -6 -36 -2 -53 14 -18 18 -19 24 -8
42 8 12 9 19 4 16 -8 -6 -52 73 -52 93 0 21 19 8 41 -27 13 -20 24 -32 25 -27
1 5 5 26 9 47 8 49 25 48 25 -3z m280 10 c6 -11 8 -20 6 -20 -3 0 -10 9 -16
20 -6 11 -8 20 -6 20 3 0 10 -9 16 -20z m-350 -92 c0 -17 -10 -6 -25 25 l-16
32 20 -25 c11 -14 21 -28 21 -32z m357 5 c-3 -10 -5 -2 -5 17 0 19 2 27 5 18
2 -10 2 -26 0 -35z m-200 -40 c-3 -10 -5 -2 -5 17 0 19 2 27 5 18 2 -10 2 -26
0 -35z m-97 -56 c13 -5 13 -6 -1 -6 -8 -1 -24 6 -35 15 -19 15 -19 15 1 6 11
-5 27 -12 35 -15z m173 -4 c-7 -2 -19 -2 -25 0 -7 3 -2 5 12 5 14 0 19 -2 13
-5z m-43 -26 c7 -17 9 -18 9 -4 1 18 31 25 31 7 0 -5 6 -10 14 -10 18 0 29
-31 16 -44 -8 -8 -14 -7 -20 4 -7 11 -10 11 -10 2 0 -7 7 -15 15 -18 20 -8 19
-23 -2 -46 -26 -29 -104 -25 -142 8 -38 32 -39 59 -4 94 34 34 80 38 93 7z
m-122 -17 c-7 -10 -14 -18 -15 -16 -6 6 9 36 18 36 5 0 4 -9 -3 -20z m219 -22
c-3 -7 -5 -2 -5 12 0 14 2 19 5 13 2 -7 2 -19 0 -25z m-107 -109 c34 -7 34 -7
5 -7 -16 -1 -43 5 -60 13 -24 12 -25 14 -5 8 14 -3 41 -10 60 -14z"/>
<path d="M267 403 c-4 -3 -7 -15 -7 -26 0 -25 9 -17 15 12 4 22 2 25 -8 14z"/>
<path d="M327 229 c6 -6 29 -12 52 -15 35 -3 39 -1 29 10 -7 8 -15 10 -19 5
-3 -5 -20 -5 -39 1 -24 7 -31 7 -23 -1z"/>
</g>
</svg>
